HIERARCHY
ROOT Hips
{
	OFFSET -0.001795 -0.223333 0.028219
	CHANNELS 6 Xposition Yposition Zposition Zrotation Yrotation Xrotation 
	JOINT LeftUpLeg
	{
		OFFSET 0.069520 -0.091406 -0.006815
		CHANNELS 3 Zrotation Yrotation Xrotation
		JOINT LeftLeg
		{
			OFFSET 0.034277 -0.375199 -0.004496
			CHANNELS 3 Zrotation Yrotation Xrotation
			JOINT LeftFoot
			{
				OFFSET -0.013596 -0.397961 -0.043693
				CHANNELS 3 Zrotation Yrotation Xrotation
				JOINT LeftToe
				{
					OFFSET 0.026358 -0.055791 0.119288
					CHANNELS 3 Zrotation Yrotation Xrotation
					End Site
					{
						OFFSET 0.000000 0.000000 0.000000
					}
				}
			}
		}
	}
	JOINT RightUpLeg
	{
		OFFSET -0.067670 -0.090522 -0.004320
		CHANNELS 3 Zrotation Yrotation Xrotation
		JOINT RightLeg
		{
			OFFSET -0.038290 -0.382569 -0.008850
			CHANNELS 3 Zrotation Yrotation Xrotation
			JOINT RightFoot
			{
				OFFSET 0.015774 -0.398415 -0.042312
				CHANNELS 3 Zrotation Yrotation Xrotation
				JOINT RightToe
				{
					OFFSET -0.025372 -0.048144 0.123348
					CHANNELS 3 Zrotation Yrotation Xrotation
					End Site
					{
						OFFSET 0.000000 0.000000 0.000000
					}
				}
			}
		}
	}
	JOINT Spine
	{
		OFFSET -0.002533 0.108963 -0.026696
		CHANNELS 3 Zrotation Yrotation Xrotation
		JOINT Spine1
		{
			OFFSET 0.005487 0.135180 0.001092
			CHANNELS 3 Zrotation Yrotation Xrotation
			JOINT Spine2
			{
				OFFSET 0.001457 0.052922 0.025425
				CHANNELS 3 Zrotation Yrotation Xrotation
				JOINT Neck
				{
					OFFSET -0.002778 0.213870 -0.042857
					CHANNELS 3 Zrotation Yrotation Xrotation
					JOINT Head
					{
						OFFSET 0.005152 0.064970 0.051349
						CHANNELS 3 Zrotation Yrotation Xrotation
						End Site
						{
							OFFSET 0.000000 0.000000 0.000000
						}
					}
				}
				JOINT LeftShoulder
				{
					OFFSET 0.078845 0.121749 -0.034090
					CHANNELS 3 Zrotation Yrotation Xrotation
					JOINT LeftArm
					{
						OFFSET 0.090977 0.030469 -0.008868
						CHANNELS 3 Zrotation Yrotation Xrotation
						JOINT LeftForeArm
						{
							OFFSET 0.259612 -0.012772 -0.027456
							CHANNELS 3 Zrotation Yrotation Xrotation
							JOINT LeftHand
							{
								OFFSET 0.249234 0.008986 -0.001171
								CHANNELS 3 Zrotation Yrotation Xrotation
								End Site
								{
									OFFSET 0.000000 0.000000 0.000000
								}
							}
						}
					}
				}
				JOINT RightShoulder
				{
					OFFSET -0.081759 0.118833 -0.038615
					CHANNELS 3 Zrotation Yrotation Xrotation
					JOINT RightArm
					{
						OFFSET -0.096012 0.032551 -0.009143
						CHANNELS 3 Zrotation Yrotation Xrotation
						JOINT RightForeArm
						{
							OFFSET -0.253742 -0.013329 -0.021401
							CHANNELS 3 Zrotation Yrotation Xrotation
							JOINT RightHand
							{
								OFFSET -0.255298 0.007772 -0.005559
								CHANNELS 3 Zrotation Yrotation Xrotation
								End Site
								{
									OFFSET 0.000000 0.000000 0.000000
								}
							}
						}
					}
				}
			}
		}
	}
}
MOTION
Frames: 13
Frame Time: 0.050000
0.000000 0.947705 0.000000 -1.138819 3.403064 2.991007 -0.187304 0.444533 4.966492 1.973298 0.103783 -6.111758 -4.676004 -4.029931 9.478845 0.000000 0.000000 0.000000 3.144097 -0.392994 2.377567 -0.526229 -0.200110 -5.750147 5.547454 8.503184 8.372455 0.000000 0.000000 0.000000 2.632519 0.038033 -1.419451 0.489786 -0.404394 3.554273 -2.603547 1.802981 2.046445 6.630020 -1.977159 -18.766487 0.000000 0.000000 0.000000 -29.442257 -6.913294 -0.305872 -35.275753 4.927618 -4.722881 3.809467 -21.160700 -0.037718 0.000000 0.000000 0.000000 27.195485 3.051955 0.741413 41.743349 -1.897999 -4.813676 -6.014333 23.750788 -0.201744 0.000000 0.000000 0.000000 
-0.000042 0.946519 0.002014 -1.393562 3.469290 3.317425 0.678111 0.375350 4.864924 0.960829 0.162700 -6.344578 -4.659919 -4.169854 9.167695 0.000000 0.000000 0.000000 3.184056 -0.260394 1.345984 -0.050224 -0.168319 -4.313027 5.307519 8.458756 7.607113 0.000000 0.000000 0.000000 3.128766 0.053500 -1.770064 -0.141736 -0.112571 4.297104 -3.078917 1.816513 1.811229 7.669101 -2.155718 -21.187895 0.000000 0.000000 0.000000 -28.422234 -6.998831 -0.233496 -37.573723 4.769995 -5.005106 6.403828 -20.820265 -0.526554 0.000000 0.000000 0.000000 27.885022 1.630310 -0.154618 42.679504 -2.692136 -5.178460 -7.955105 25.050029 -0.576648 0.000000 0.000000 0.000000 
-0.000247 0.945891 0.004206 -1.265630 3.424802 3.669907 0.997905 0.328121 4.539752 0.166715 0.194187 -6.168138 -4.644982 -4.209950 9.068214 0.000000 0.000000 0.000000 3.152994 -0.218543 1.015962 -0.207132 -0.149311 -4.139283 5.222231 8.483294 7.253269 0.000000 0.000000 0.000000 3.438874 0.041580 -1.684671 -0.329426 0.072858 2.107660 -3.167150 1.678275 3.712015 7.391941 -2.154963 -20.638791 0.000000 0.000000 0.000000 -27.579880 -7.103100 0.057538 -39.054850 5.182979 -5.523887 4.906295 -20.431165 -0.231472 0.000000 0.000000 0.000000 27.591437 2.183774 0.241068 43.498885 -3.429478 -5.644408 -8.133387 25.400785 -0.611961 0.000000 0.000000 0.000000 
-0.000733 0.946124 0.006775 -1.503479 3.497076 3.911840 1.279335 0.324063 4.767977 0.222600 0.211162 -6.791061 -4.723903 -4.222620 9.290475 0.000000 0.000000 0.000000 3.111999 -0.194105 0.828459 0.417634 -0.191335 -4.007997 5.275069 8.481322 7.459348 0.000000 0.000000 0.000000 3.545641 0.072590 -2.191506 -0.618475 0.177059 3.169068 -2.850340 1.611482 2.956287 7.781020 -2.235147 -21.416386 0.000000 0.000000 0.000000 -28.580967 -7.173138 0.021125 -38.580910 6.743212 -5.842613 4.968858 -20.090133 -0.233898 0.000000 0.000000 0.000000 28.024939 2.349614 0.266884 42.731357 -4.541624 -5.830916 -8.578440 25.094887 -0.710041 0.000000 0.000000 0.000000 
-0.001578 0.945790 0.009282 -1.446489 3.349717 3.939214 1.168990 0.365800 5.205365 0.385708 0.221512 -7.292651 -4.689289 -4.128422 9.379158 0.000000 0.000000 0.000000 3.232801 -0.195407 0.797817 0.174680 -0.161222 -3.717202 5.254260 8.603929 7.162833 0.000000 0.000000 0.000000 3.491005 0.082273 -2.329035 -0.507744 0.113799 3.410068 -3.106570 1.467296 2.598916 7.681838 -2.403163 -20.051596 0.000000 0.000000 0.000000 -28.590797 -7.146862 0.052950 -38.300726 8.178983 -6.202339 3.634299 -20.828492 0.002355 0.000000 0.000000 0.000000 27.505918 1.934333 -0.071999 42.479107 -5.026648 -5.887748 -8.284245 24.926218 -0.658565 0.000000 0.000000 0.000000 
-0.002750 0.945272 0.011678 -1.435739 3.234816 4.129102 1.274147 0.384753 5.560885 0.296145 0.247737 -7.986841 -4.682098 -4.063590 9.503871 0.000000 0.000000 0.000000 3.105085 -0.175187 0.663869 0.512805 -0.182621 -3.576607 5.277134 8.749156 6.993686 0.000000 0.000000 0.000000 3.230228 0.094016 -2.522394 -0.322744 0.000797 3.921236 -2.973760 1.192392 2.457297 7.110846 -2.033980 -20.622732 0.000000 0.000000 0.000000 -28.989692 -7.310881 0.275125 -38.245163 8.327994 -6.260118 2.891335 -20.151967 0.148073 0.000000 0.000000 0.000000 27.584285 2.530984 0.168460 42.058889 -4.956703 -5.758327 -9.282122 24.161568 -0.844376 0.000000 0.000000 0.000000 
-0.004340 0.944970 0.013894 -1.346390 2.750774 4.133884 1.267074 0.395298 5.628925 0.192359 0.245588 -7.750922 -4.433636 -3.734823 9.395343 0.000000 0.000000 0.000000 3.347598 -0.124723 0.199069 -0.001310 -0.099158 -2.521110 5.288647 9.084308 6.434943 0.000000 0.000000 0.000000 3.087256 0.076256 -2.231371 -0.271439 -0.010146 3.721897 -3.118267 1.256428 2.837281 7.181642 -2.048740 -20.969644 0.000000 0.000000 0.000000 -29.108236 -7.774817 0.651774 -37.797613 9.004062 -6.407794 2.346308 -19.866159 0.249821 0.000000 0.000000 0.000000 27.660948 2.822322 0.310150 41.324122 -4.619565 -5.563842 -10.028811 23.657016 -0.968150 0.000000 0.000000 0.000000 
-0.006246 0.945051 0.016216 -1.262799 2.035287 4.293445 1.025580 0.418760 5.608534 0.471479 0.233108 -7.610906 -4.084386 -3.177490 9.428837 0.000000 0.000000 0.000000 3.651377 -0.069811 -0.326080 -0.636169 -0.006406 -1.675935 5.448685 9.592037 6.112926 0.000000 0.000000 0.000000 2.841675 0.057150 -1.919571 -0.378884 0.056378 3.746342 -2.603102 1.238887 3.068330 6.361730 -1.624305 -21.242864 0.000000 0.000000 0.000000 -29.241996 -7.915648 0.957075 -37.273452 9.199045 -6.425711 1.747859 -19.709465 0.365941 0.000000 0.000000 0.000000 27.680564 3.444102 0.532434 40.173520 -4.083982 -5.210763 -11.080897 22.789871 -1.134837 0.000000 0.000000 0.000000 
-0.008535 0.945388 0.019224 -1.091170 1.618221 4.628169 0.970603 0.423795 5.575689 0.383085 0.243901 -7.777612 -3.974732 -2.864040 9.766756 0.000000 0.000000 0.000000 3.737808 -0.014091 -0.800083 -0.944507 0.045692 -1.166114 5.559225 9.884716 5.998147 0.000000 0.000000 0.000000 2.464925 0.052839 -1.841522 -0.195163 -0.036621 3.890911 -2.424914 1.024512 3.085277 5.952806 -1.403015 -21.637958 0.000000 0.000000 0.000000 -28.892675 -8.171376 1.347295 -36.643257 9.424115 -6.412884 2.122197 -19.235968 0.308275 0.000000 0.000000 0.000000 27.385063 4.486833 1.035858 39.721759 -3.588427 -4.948687 -12.666026 21.509951 -1.341595 0.000000 0.000000 0.000000 
-0.011189 0.945414 0.023396 -0.997184 1.482783 4.768490 1.161077 0.432707 5.860039 0.149506 0.261982 -8.047580 -3.992455 -2.782704 10.030708 0.000000 0.000000 0.000000 3.965197 -0.017195 -0.837752 -1.243508 0.087613 -0.899322 5.565933 9.999006 5.837179 0.000000 0.000000 0.000000 2.015491 0.047400 -1.691743 -0.013565 -0.121250 3.698138 -2.101866 1.026386 3.407530 5.668398 -1.248714 -21.832825 0.000000 0.000000 0.000000 -28.999665 -8.311949 1.507174 -35.391489 9.540805 -6.224369 2.079046 -19.271387 0.321177 0.000000 0.000000 0.000000 27.101924 4.794399 1.200899 38.984407 -3.565159 -4.850447 -12.974601 20.621221 -1.328477 0.000000 0.000000 0.000000 
-0.014202 0.945689 0.028851 -0.924797 1.292124 4.782778 1.376367 0.439386 6.140255 -0.040163 0.245338 -7.302177 -3.811622 -3.040354 8.912732 0.000000 0.000000 0.000000 4.101693 -0.019212 -0.860375 -1.310134 0.125591 -0.271354 5.607078 10.169329 5.703154 0.000000 0.000000 0.000000 1.920135 0.041238 -1.561008 0.183512 -0.224931 3.870944 -2.139161 1.045420 3.445405 5.695770 -1.227065 -22.168190 0.000000 0.000000 0.000000 -28.536332 -8.507861 1.684350 -34.592824 9.472792 -6.056980 2.387621 -19.875330 0.278088 0.000000 0.000000 0.000000 27.158662 5.086008 1.367350 38.445326 -3.482983 -4.754787 -13.559484 19.400185 -1.320378 0.000000 0.000000 0.000000 
-0.017674 0.945660 0.035057 -0.842645 1.341387 4.655673 1.827525 0.405488 6.171716 -0.318244 0.212801 -5.826812 -3.983710 -3.998669 7.653616 0.000000 0.000000 0.000000 4.443203 -0.077551 -0.497142 -1.647080 0.178109 0.050210 5.538882 10.161268 5.495490 0.000000 0.000000 0.000000 1.826581 0.032022 -1.363690 0.459012 -0.367222 3.857340 -2.019873 1.128665 3.410184 5.648119 -1.140473 -22.573919 0.000000 0.000000 0.000000 -28.536727 -8.654438 1.742551 -33.903246 8.957134 -5.782795 2.708993 -20.485141 0.226470 0.000000 0.000000 0.000000 26.768470 4.922337 1.300232 38.535559 -4.171890 -4.964027 -13.327081 19.246985 -1.271211 0.000000 0.000000 0.000000 
-0.021777 0.945817 0.041638 -0.889858 1.405534 4.549955 2.301001 0.361109 6.087075 -0.130670 0.149464 -4.158861 -4.346165 -5.336082 6.443672 0.000000 0.000000 0.000000 4.887297 -0.105868 -0.381650 -1.255549 0.172646 0.771653 4.808891 8.588681 5.328259 0.000000 0.000000 0.000000 1.981626 0.004507 -0.909061 0.833515 -0.570139 4.057849 -2.153980 1.041872 3.210198 5.990584 -1.283494 -22.838931 0.000000 0.000000 0.000000 -28.258963 -8.416663 1.602126 -33.579411 8.080190 -5.499670 3.124642 -21.529467 0.157652 0.000000 0.000000 0.000000 26.407971 4.997864 1.338732 38.906751 -4.549896 -5.101346 -13.312134 18.839616 -1.237149 0.000000 0.000000 0.000000 
